<?xml version="1.0" standalone="no"?>
<!DOCTYPE svg PUBLIC "-//W3C//DTD SVG 20010904//EN"
 "http://www.w3.org/TR/2001/REC-SVG-20010904/DTD/svg10.dtd">
<svg version="1.0" xmlns="http://www.w3.org/2000/svg"
 width="1152.000000pt" height="1152.000000pt" viewBox="0 0 1152.000000 1152.000000"
 preserveAspectRatio="xMidYMid meet">

<g transform="translate(0.000000,1152.000000) scale(0.100000,-0.100000)"
fill="#000000" stroke="none">
<path d="M5514 11029 c-3 -5 -26 -9 -52 -9 -26 0 -56 -7 -66 -15 -11 -8 -37
-15 -57 -15 -21 0 -41 -5 -44 -11 -4 -6 -25 -9 -47 -8 -21 2 -42 -2 -46 -7 -4
-6 -25 -17 -47 -25 -22 -7 -49 -19 -60 -26 -11 -7 -25 -13 -33 -13 -7 0 -32
-9 -54 -20 -23 -11 -48 -20 -55 -20 -7 0 -13 -4 -13 -10 0 -5 -7 -10 -16 -10
-8 0 -30 -11 -47 -24 -18 -13 -42 -27 -54 -30 -11 -4 -27 -13 -33 -21 -7 -8
-20 -15 -30 -15 -10 0 -25 -11 -34 -25 -9 -14 -23 -25 -32 -25 -8 0 -27 -11
-41 -24 -14 -13 -31 -22 -38 -20 -7 3 -22 -11 -33 -30 -12 -20 -26 -36 -33
-36 -6 0 -20 -12 -31 -26 -14 -16 -27 -24 -39 -21 -11 3 -19 1 -19 -5 0 -5
-29 -38 -65 -73 -36 -36 -65 -73 -65 -83 0 -11 -15 -30 -34 -43 -19 -13 -42
-37 -52 -53 -10 -17 -30 -43 -46 -58 -15 -15 -28 -30 -28 -33 0 -14 -46 -75
-57 -75 -7 0 -13 -10 -13 -23 0 -12 -9 -29 -20 -37 -11 -8 -20 -19 -20 -26 0
-18 -31 -74 -41 -74 -5 0 -9 -11 -9 -25 0 -14 -4 -25 -10 -25 -5 0 -10 -6 -10
-13 0 -8 -20 -53 -45 -101 -25 -49 -45 -96 -45 -107 0 -10 -4 -19 -8 -19 -4 0
-13 -21 -20 -47 -8 -27 -17 -56 -23 -65 -5 -10 -13 -34 -18 -55 -5 -21 -16
-64 -25 -96 -9 -32 -16 -68 -16 -80 0 -13 -4 -27 -9 -32 -5 -6 -11 -30 -14
-55 -8 -85 -31 -200 -39 -200 -4 0 -8 -36 -8 -80 0 -99 -10 -107 -104 -91 -78
14 -2006 16 -2006 2 0 -5 -10 -12 -22 -15 -13 -3 -44 -26 -70 -52 -36 -34 -48
-52 -48 -75 0 -16 -5 -29 -10 -29 -7 0 -10 -52 -9 -150 0 -82 5 -150 10 -150
5 0 9 -86 9 -197 0 -109 4 -216 9 -238 5 -22 11 -150 13 -285 2 -176 6 -248
15 -255 9 -7 13 -74 14 -237 1 -126 6 -228 10 -228 5 0 9 -99 9 -221 0 -124 4
-228 10 -239 5 -10 10 -126 11 -264 0 -135 4 -246 8 -246 6 0 23 -342 22 -452
0 -10 4 -20 10 -23 5 -4 9 -103 9 -234 0 -136 4 -231 10 -237 6 -6 10 -107 11
-251 0 -133 4 -243 9 -245 5 -2 10 -108 11 -235 2 -128 6 -233 9 -233 4 0 10
-99 14 -221 4 -121 11 -231 16 -244 11 -28 15 -462 5 -487 -5 -13 -2 -18 9
-18 14 0 16 -26 16 -235 0 -150 4 -235 10 -235 6 0 10 -85 10 -235 0 -129 4
-235 8 -235 5 0 12 -44 15 -97 4 -53 11 -101 17 -107 5 -5 10 -22 10 -36 0
-14 9 -50 21 -80 12 -30 26 -69 33 -86 6 -18 17 -38 23 -45 6 -8 21 -35 33
-61 12 -27 26 -48 31 -48 5 0 9 -10 9 -22 0 -15 12 -31 35 -46 19 -12 35 -27
35 -33 0 -13 25 -39 39 -39 5 0 16 -8 23 -18 7 -10 27 -27 43 -37 17 -11 42
-32 58 -47 15 -15 34 -28 41 -28 8 0 21 -6 28 -12 7 -7 27 -19 43 -27 17 -7
38 -17 47 -22 10 -5 27 -9 38 -9 11 0 20 -4 20 -10 0 -5 13 -10 29 -10 16 0
34 -7 41 -15 7 -9 29 -15 51 -15 22 0 39 -4 39 -10 0 -14 6406 -14 6415 0 3 6
21 10 39 10 18 0 41 7 52 15 10 8 31 15 47 15 15 0 27 5 27 10 0 6 8 10 18 10
21 0 188 84 209 106 8 8 27 21 42 29 16 8 36 25 45 39 9 15 21 26 27 26 12 0
39 25 39 37 0 4 9 14 20 21 11 7 20 18 20 25 0 6 14 28 31 47 17 19 39 53 50
75 11 22 23 47 28 55 24 42 51 111 61 160 7 30 17 64 23 75 5 11 12 61 15 113
3 51 9 95 13 98 5 3 9 108 9 235 0 146 4 229 10 229 6 0 10 85 10 235 0 209 2
235 16 235 11 0 14 5 10 17 -11 28 -7 465 4 478 5 6 13 116 16 243 4 128 11
232 15 232 4 0 8 105 8 233 1 128 6 233 11 235 5 2 9 112 10 249 0 139 5 253
10 263 6 11 10 112 10 232 0 118 4 218 9 224 5 5 13 114 17 242 4 127 11 232
15 232 4 0 8 111 9 246 0 135 4 251 8 258 7 11 15 214 27 699 5 170 10 229 19
233 9 4 12 26 9 82 -3 42 1 169 7 282 29 497 39 871 26 925 -11 44 -28 75 -40
75 -6 0 -17 9 -24 20 -6 11 -30 31 -52 45 l-41 26 -1046 -1 c-860 -1 -1047 1
-1054 12 -5 7 -6 35 -2 61 3 28 1 58 -5 70 -6 12 -15 56 -21 97 -6 41 -15 100
-21 130 -6 30 -13 71 -16 90 -3 19 -9 44 -13 55 -19 46 -31 93 -31 117 0 14
-7 31 -15 38 -8 7 -15 25 -15 41 0 15 -4 31 -10 34 -5 3 -10 15 -10 26 0 10
-4 19 -10 19 -5 0 -10 7 -10 15 0 8 -4 23 -9 33 -42 84 -61 129 -61 140 0 6
-4 12 -10 12 -5 0 -10 9 -10 19 0 11 -4 21 -8 23 -10 4 -62 107 -62 123 0 6
-9 17 -20 25 -11 8 -20 21 -20 30 0 9 -8 23 -17 31 -25 22 -46 50 -62 82 -8
15 -20 27 -26 27 -7 0 -18 14 -25 30 -7 17 -16 30 -21 30 -5 0 -9 4 -9 9 0 6
-20 30 -45 55 -25 26 -45 50 -45 56 0 5 -25 34 -55 65 -30 31 -55 61 -55 67 0
5 -8 7 -18 4 -12 -4 -28 5 -51 29 -18 19 -37 35 -42 35 -5 0 -14 11 -19 25 -5
14 -17 25 -27 25 -10 0 -29 9 -43 20 -14 11 -29 20 -33 20 -4 0 -20 11 -35 25
-15 14 -31 25 -37 25 -6 0 -17 9 -25 20 -8 11 -19 20 -26 20 -18 0 -74 31 -74
41 0 5 -11 9 -25 9 -14 0 -25 5 -25 10 0 6 -7 10 -15 10 -8 0 -25 5 -38 12
-46 24 -57 28 -71 28 -8 0 -19 6 -23 14 -8 14 -41 24 -105 33 -21 3 -38 9 -38
14 0 5 -13 9 -29 9 -17 0 -33 5 -36 10 -3 6 -23 10 -43 10 -20 1 -48 7 -62 15
-14 8 -44 14 -67 15 -23 0 -45 4 -48 10 -8 12 -483 11 -491 -1z m391 -479 c3
-5 35 -10 70 -10 35 0 67 -4 70 -10 3 -5 19 -10 35 -10 44 0 206 -62 222 -85
4 -5 20 -9 36 -7 17 2 34 -3 42 -12 7 -9 18 -16 24 -16 6 0 18 -9 26 -20 8
-11 19 -20 26 -20 18 0 70 -29 89 -50 10 -11 24 -20 31 -20 16 0 114 -93 114
-108 0 -6 7 -9 16 -5 11 4 38 -18 90 -73 41 -43 74 -82 74 -86 0 -5 16 -22 35
-39 19 -17 35 -37 35 -45 0 -8 13 -28 30 -46 16 -17 42 -55 56 -84 15 -30 30
-54 34 -54 10 0 60 -98 60 -117 0 -7 5 -13 10 -13 6 0 10 -11 10 -25 0 -14 5
-25 10 -25 6 0 10 -9 10 -19 0 -21 30 -84 43 -89 4 -2 7 -19 7 -38 0 -19 5
-34 10 -34 6 0 10 -18 10 -39 0 -22 5 -43 10 -46 6 -3 10 -26 10 -51 0 -30 5
-46 15 -50 9 -4 15 -19 15 -39 0 -19 5 -37 10 -40 6 -3 10 -42 10 -85 0 -43 5
-82 10 -85 6 -3 10 -22 10 -41 0 -26 -4 -34 -17 -34 -10 0 -702 0 -1538 0
-836 -1 -1530 -1 -1542 0 -19 0 -23 6 -23 33 0 18 4 37 9 43 5 5 12 45 15 89
8 121 17 173 32 186 8 6 14 22 14 35 0 12 5 26 10 29 6 3 10 26 10 51 0 24 5
44 10 44 6 0 10 16 10 35 0 19 3 35 8 35 4 0 15 21 25 48 30 75 34 84 61 142
28 57 47 91 56 100 3 3 18 30 33 60 14 30 40 68 57 83 16 16 30 35 30 42 0 7
16 27 35 44 19 17 35 35 35 40 0 6 33 45 72 86 50 53 78 75 90 72 10 -3 18 0
18 6 0 20 80 89 96 83 8 -3 19 4 25 17 17 31 84 77 113 77 6 0 18 9 26 20 8
11 20 20 26 20 6 0 17 7 25 16 9 11 22 14 41 10 20 -4 30 -1 34 9 4 8 15 15
25 15 10 0 19 4 19 8 0 10 62 31 100 35 14 1 31 8 38 15 7 6 29 12 47 12 19 0
37 5 40 10 3 6 35 10 71 10 36 0 64 4 64 10 0 6 53 10 139 10 83 0 142 -4 146
-10z m195 -3135 c36 -4 69 -11 74 -16 6 -5 23 -9 39 -9 32 0 132 -25 159 -40
10 -6 25 -10 35 -10 17 0 74 -16 103 -29 8 -4 41 -16 73 -26 31 -11 57 -23 57
-27 0 -4 8 -8 18 -8 11 0 32 -6 48 -14 140 -67 170 -81 174 -86 3 -3 31 -18
63 -35 31 -16 57 -32 57 -35 0 -4 16 -12 35 -20 19 -8 35 -16 35 -20 0 -3 16
-14 35 -24 19 -11 35 -25 35 -31 0 -16 -18 -51 -47 -92 -13 -17 -23 -36 -23
-42 0 -6 -4 -11 -10 -11 -5 0 -10 -4 -10 -10 0 -5 -20 -41 -45 -80 -25 -39
-45 -74 -45 -79 0 -5 -13 -23 -29 -39 -20 -22 -34 -29 -50 -25 -11 3 -21 9
-21 14 0 5 -7 9 -15 9 -8 0 -15 5 -15 10 0 6 -5 10 -10 10 -6 0 -34 15 -63 33
-49 31 -188 101 -232 117 -21 8 -30 11 -133 54 -35 14 -74 26 -87 26 -13 0
-26 4 -29 9 -3 5 -20 11 -38 14 -18 3 -53 10 -78 16 -25 5 -76 15 -115 21 -38
6 -92 16 -120 22 -85 17 -373 -2 -468 -31 -18 -5 -52 -15 -77 -21 -59 -16 -71
-21 -165 -65 -72 -35 -220 -134 -237 -160 -3 -6 -17 -22 -30 -36 -66 -74 -116
-157 -135 -224 -6 -22 -17 -58 -23 -80 -18 -64 -2 -316 21 -331 5 -3 9 -12 9
-20 0 -26 70 -127 124 -179 70 -67 104 -95 116 -95 6 0 10 -4 10 -8 0 -5 12
-15 28 -23 15 -7 51 -28 80 -46 29 -18 56 -33 60 -33 11 0 117 -54 120 -62 2
-5 12 -8 22 -8 10 0 22 -4 25 -10 3 -5 14 -10 24 -10 9 0 41 -11 69 -25 29
-14 56 -25 62 -25 6 0 19 -4 30 -10 11 -5 29 -14 40 -20 11 -5 26 -10 33 -10
7 0 31 -9 53 -19 22 -11 52 -23 67 -26 15 -4 30 -11 33 -16 3 -5 16 -9 29 -9
13 0 27 -4 30 -10 3 -5 14 -10 24 -10 9 0 35 -8 57 -19 21 -10 64 -27 94 -37
30 -10 57 -22 58 -26 2 -5 12 -8 23 -8 11 0 27 -4 37 -9 9 -5 38 -18 64 -28
27 -10 48 -21 48 -25 0 -5 11 -8 25 -8 14 0 25 -4 25 -10 0 -5 6 -10 14 -10
15 0 287 -136 296 -148 3 -4 19 -14 35 -22 17 -8 35 -19 41 -25 6 -5 27 -21
47 -35 20 -14 37 -28 37 -32 0 -5 6 -8 13 -8 6 0 30 -17 53 -38 23 -20 54 -49
70 -63 61 -55 132 -137 175 -204 53 -81 119 -210 119 -231 0 -8 4 -22 9 -32 5
-9 14 -35 19 -57 6 -22 18 -69 28 -105 24 -93 24 -411 0 -490 -10 -30 -22 -73
-28 -95 -7 -22 -14 -44 -18 -50 -3 -5 -12 -28 -19 -50 -8 -22 -25 -57 -38 -77
-12 -21 -23 -42 -23 -48 0 -5 -4 -10 -10 -10 -5 0 -10 -5 -10 -11 0 -40 -231
-288 -331 -355 -32 -21 -59 -42 -59 -46 0 -5 -5 -8 -10 -8 -6 0 -29 -11 -51
-26 -69 -43 -109 -64 -124 -64 -8 0 -15 -3 -15 -7 0 -5 -21 -16 -48 -26 -65
-26 -94 -38 -114 -48 -10 -5 -28 -9 -41 -9 -13 0 -27 -3 -31 -7 -12 -12 -120
-43 -152 -43 -16 0 -34 -4 -40 -9 -5 -5 -38 -12 -74 -16 -103 -11 -528 -8
-605 3 -134 21 -267 51 -281 65 -4 4 -20 7 -35 7 -15 0 -31 4 -34 10 -3 6 -17
10 -30 10 -13 0 -27 5 -30 10 -3 6 -13 10 -21 10 -8 0 -37 11 -66 25 -28 14
-57 25 -63 25 -7 0 -52 20 -101 45 -49 25 -95 45 -101 45 -7 0 -13 5 -13 10 0
6 -9 10 -20 10 -11 0 -20 5 -20 10 0 6 -5 10 -10 10 -6 0 -36 16 -66 35 -30
19 -57 35 -61 35 -3 0 -21 11 -39 25 -18 14 -37 25 -43 25 -6 0 -11 3 -11 8 0
4 -28 25 -63 47 -34 22 -69 45 -77 52 -94 74 -97 82 -45 154 19 27 35 54 35
59 0 6 5 10 10 10 6 0 10 6 10 13 0 7 9 23 20 35 11 12 20 25 20 29 0 5 10 19
23 33 12 14 28 37 35 51 8 14 24 39 37 55 l23 28 33 -27 c59 -47 248 -177 258
-177 5 0 11 -4 13 -8 8 -21 253 -146 383 -196 39 -15 78 -32 87 -37 10 -5 27
-9 37 -9 11 0 22 -4 25 -9 3 -5 23 -11 43 -14 21 -3 58 -10 83 -16 165 -40
407 -61 495 -42 52 11 153 28 218 38 20 3 40 9 43 14 3 5 18 9 34 9 16 0 32 5
35 10 3 6 14 10 23 10 15 0 200 87 212 100 3 3 30 21 61 41 54 36 199 174 199
190 0 4 6 14 13 21 12 14 20 27 52 88 33 64 35 70 35 93 0 13 5 28 11 34 19
19 3 328 -20 388 -22 54 -88 178 -109 203 -62 72 -175 182 -187 182 -2 0 -36
20 -74 45 -38 25 -74 45 -80 45 -6 0 -11 5 -11 10 0 6 -9 10 -19 10 -11 0 -21
3 -23 8 -4 9 -110 62 -126 62 -6 0 -12 5 -12 10 0 6 -7 10 -15 10 -8 0 -23 4
-33 9 -9 5 -38 18 -64 28 -27 10 -48 21 -48 26 0 4 -9 7 -20 7 -11 0 -30 5
-43 12 -46 24 -57 28 -70 28 -13 0 -59 19 -99 41 -10 5 -27 9 -38 9 -11 0 -20
5 -20 10 0 6 -10 10 -23 10 -13 0 -27 4 -32 8 -6 4 -35 16 -65 26 -30 11 -59
23 -65 27 -5 5 -17 9 -27 9 -10 0 -26 4 -36 9 -9 5 -48 21 -87 36 -38 15 -78
31 -87 36 -10 5 -25 9 -33 9 -8 0 -15 5 -15 10 0 6 -7 10 -15 10 -8 0 -23 4
-33 9 -9 5 -74 37 -144 72 -71 34 -128 65 -128 68 0 3 -14 12 -32 20 -33 15
-145 90 -186 126 -82 70 -199 196 -226 244 -5 9 -12 18 -16 21 -5 4 -23 39
-92 182 -4 10 -8 26 -8 36 0 10 -4 22 -9 28 -32 32 -54 388 -31 494 14 65 39
157 50 185 41 107 83 184 161 295 39 56 206 221 248 246 17 10 31 22 31 26 0
4 5 8 10 8 6 0 29 13 51 30 36 25 164 91 239 122 14 6 33 14 42 19 10 5 25 9
33 9 8 0 23 4 33 9 36 18 121 41 150 41 17 0 34 5 37 10 3 6 33 10 65 10 32 0
62 5 65 10 7 11 445 7 565 -5z"/>
</g>
</svg>
