<?xml version="1.0" standalone="no"?>
<!DOCTYPE svg PUBLIC "-//W3C//DTD SVG 20010904//EN"
 "http://www.w3.org/TR/2001/REC-SVG-20010904/DTD/svg10.dtd">
<svg version="1.0" xmlns="http://www.w3.org/2000/svg"
 width="1152.000000pt" height="1152.000000pt" viewBox="0 0 1152.000000 1152.000000"
 preserveAspectRatio="xMidYMid meet">

<g transform="translate(0.000000,1152.000000) scale(0.100000,-0.100000)"
fill="#000000" stroke="none">
<path d="M5610 9780 c-36 -4 -78 -12 -95 -18 -16 -6 -61 -13 -100 -17 -42 -3
-82 -14 -101 -25 -17 -11 -43 -20 -56 -20 -14 0 -46 -11 -72 -25 -26 -14 -55
-25 -65 -25 -10 0 -26 -9 -35 -19 -10 -11 -31 -23 -47 -26 -16 -4 -39 -15 -52
-26 -32 -27 -96 -69 -107 -69 -5 0 -24 -15 -43 -32 -19 -18 -64 -58 -99 -88
-35 -30 -88 -83 -118 -119 -30 -35 -65 -76 -78 -90 -12 -14 -38 -51 -57 -81
-18 -30 -40 -62 -48 -70 -8 -8 -20 -32 -26 -52 -7 -21 -17 -38 -21 -38 -5 0
-14 -19 -21 -42 -6 -24 -19 -52 -29 -63 -9 -11 -20 -41 -23 -67 -4 -26 -16
-64 -27 -85 -11 -21 -20 -55 -20 -76 0 -21 -7 -69 -16 -107 -8 -37 -18 -106
-22 -152 l-7 -83 -295 -5 c-257 -4 -299 -7 -327 -23 -18 -9 -54 -20 -80 -23
-27 -3 -59 -14 -73 -23 -14 -10 -42 -23 -62 -30 -21 -7 -38 -17 -38 -22 0 -5
-19 -18 -42 -30 -51 -26 -161 -136 -187 -188 -11 -20 -27 -43 -35 -50 -9 -8
-16 -21 -16 -30 0 -10 -11 -32 -24 -49 -14 -20 -26 -53 -30 -87 -3 -30 -13
-72 -21 -93 -8 -20 -19 -102 -24 -182 -6 -80 -17 -163 -24 -185 -8 -22 -18
-101 -22 -175 -4 -77 -13 -152 -22 -175 -8 -23 -18 -103 -23 -190 -5 -86 -16
-171 -25 -200 -9 -29 -20 -114 -25 -200 -4 -82 -13 -163 -19 -179 -6 -15 -16
-85 -22 -155 -6 -69 -19 -183 -30 -253 -11 -70 -24 -180 -29 -245 -6 -65 -16
-152 -24 -193 -8 -41 -20 -136 -26 -211 -6 -75 -17 -156 -24 -180 -7 -24 -17
-104 -21 -178 -4 -74 -14 -152 -22 -175 -8 -23 -19 -107 -24 -188 -5 -84 -16
-166 -25 -190 -10 -26 -19 -102 -24 -193 -5 -95 -13 -163 -23 -185 -9 -22 -18
-86 -22 -170 -4 -74 -13 -163 -21 -198 -17 -75 -19 -249 -3 -289 6 -15 15 -63
20 -106 4 -43 14 -88 22 -100 8 -12 22 -48 31 -79 9 -31 20 -58 25 -60 4 -2
18 -23 30 -48 11 -25 29 -57 38 -71 10 -14 28 -41 40 -60 36 -55 54 -76 126
-149 62 -63 175 -150 195 -150 5 0 17 -9 26 -19 10 -11 31 -23 46 -26 15 -3
35 -14 45 -25 9 -10 32 -21 51 -25 19 -3 49 -14 67 -24 18 -11 60 -22 94 -25
35 -4 80 -15 100 -24 35 -16 194 -17 2333 -17 2122 0 2298 1 2332 17 20 9 63
19 95 23 32 4 74 15 93 25 20 9 51 21 70 25 19 4 44 15 55 25 11 10 37 23 57
29 20 7 38 15 40 19 2 4 36 29 76 55 39 27 103 81 142 120 96 100 103 108 117
137 7 14 31 50 53 80 22 30 40 61 40 69 0 8 9 24 20 36 12 12 23 40 27 61 3
21 14 53 25 71 10 18 23 66 28 110 5 43 14 94 20 113 14 50 12 208 -4 282 -8
35 -17 123 -20 197 -5 86 -12 147 -22 170 -11 24 -19 89 -24 191 -6 102 -14
168 -24 192 -10 24 -18 83 -22 160 -3 68 -14 157 -24 198 -10 41 -21 129 -25
195 -3 66 -13 143 -20 170 -8 28 -21 124 -29 215 -9 91 -20 183 -26 205 -5 22
-12 78 -15 125 -4 47 -17 162 -30 255 -13 94 -29 226 -35 294 -6 68 -16 135
-22 150 -5 14 -14 94 -18 176 -6 93 -15 167 -25 195 -11 29 -19 101 -24 200
-6 100 -14 167 -24 190 -9 22 -17 87 -22 175 -4 78 -13 158 -21 180 -8 22 -19
105 -25 185 -6 93 -17 166 -30 203 -10 31 -19 72 -19 91 0 18 -8 44 -19 57
-10 13 -24 41 -30 61 -7 21 -17 40 -22 44 -5 3 -21 24 -36 47 -33 52 -135 152
-176 173 -18 9 -41 24 -52 34 -11 10 -31 21 -45 25 -13 4 -36 16 -50 25 -14
10 -46 21 -73 24 -26 3 -62 14 -80 23 -28 16 -70 19 -327 23 l-295 5 -7 90
c-4 50 -15 117 -23 151 -8 33 -15 78 -15 100 0 22 -9 58 -20 79 -11 22 -23 58
-26 80 -3 22 -14 52 -25 66 -10 15 -21 40 -25 55 -4 16 -14 38 -24 49 -10 11
-21 33 -24 50 -4 16 -14 37 -22 45 -8 8 -32 42 -53 75 -58 90 -179 227 -268
301 -43 36 -82 71 -88 78 -5 7 -40 29 -77 50 -36 20 -72 43 -78 51 -7 8 -21
15 -30 15 -10 0 -32 11 -48 25 -17 14 -38 25 -47 25 -10 0 -32 9 -49 19 -17
11 -49 22 -71 26 -22 4 -54 16 -71 26 -18 11 -61 21 -105 25 -41 4 -89 13
-108 20 -41 17 -288 26 -381 14z m375 -785 c28 -13 58 -25 68 -25 21 0 120
-55 137 -75 7 -8 18 -15 25 -15 19 0 137 -117 171 -169 45 -69 94 -161 94
-177 0 -7 9 -31 20 -52 16 -30 21 -62 23 -128 l2 -89 -765 0 -765 0 2 89 c2
66 7 98 23 128 11 21 20 46 20 56 2 38 104 197 170 262 68 69 214 165 266 174
16 4 48 15 69 26 35 18 59 20 215 20 166 0 178 -1 225 -25z m372 -1903 c6 -4
15 -32 18 -62 4 -30 17 -71 30 -90 12 -19 25 -61 29 -93 4 -31 14 -64 23 -72
8 -8 19 -32 25 -53 6 -20 20 -46 32 -58 11 -12 33 -41 48 -65 41 -68 105 -135
193 -203 44 -33 87 -65 96 -71 55 -34 101 -55 119 -55 12 0 34 -7 51 -15 16
-9 70 -19 119 -24 50 -5 94 -11 97 -15 4 -4 8 -27 9 -52 1 -24 7 -57 13 -73 8
-19 11 -101 9 -265 -2 -197 -6 -238 -18 -246 -27 -17 -171 -12 -230 9 -30 10
-82 22 -115 26 -34 4 -70 15 -84 26 -15 12 -40 19 -65 19 -29 0 -53 8 -75 24
-19 14 -46 28 -62 31 -15 4 -33 12 -39 20 -6 8 -26 17 -43 21 -18 3 -39 13
-47 20 -18 17 -89 64 -92 61 -1 -1 -5 -337 -8 -747 -5 -744 -5 -745 -27 -790
-13 -25 -23 -56 -23 -70 0 -39 -96 -237 -121 -250 -9 -5 -20 -21 -23 -35 -11
-44 -141 -189 -251 -280 -20 -16 -43 -36 -50 -43 -8 -7 -29 -19 -48 -27 -18
-8 -39 -20 -46 -28 -6 -8 -24 -18 -38 -22 -15 -3 -38 -15 -51 -26 -14 -10 -36
-19 -50 -19 -14 0 -35 -9 -46 -19 -12 -11 -47 -24 -81 -30 -33 -5 -73 -16 -90
-25 -24 -13 -68 -16 -235 -16 -186 0 -209 2 -243 20 -20 11 -56 20 -80 20 -30
0 -53 7 -77 25 -19 14 -44 25 -56 25 -12 0 -35 11 -51 24 -15 13 -38 26 -49
30 -12 4 -29 15 -39 26 -10 11 -23 20 -29 20 -29 0 -253 225 -319 320 -68 98
-127 201 -127 223 0 6 -11 35 -25 62 -13 28 -25 61 -25 75 0 14 -9 62 -20 107
-39 163 -37 238 10 453 28 129 100 311 135 340 8 7 15 16 15 21 0 33 157 215
247 286 16 12 42 33 59 47 18 14 34 26 37 26 2 0 38 20 78 44 41 24 93 49 116
55 23 7 45 16 48 21 3 5 40 16 83 26 42 9 83 22 91 28 16 12 354 16 366 4 4
-4 9 -33 12 -65 8 -94 15 -536 9 -559 -6 -21 -12 -22 -170 -26 -151 -3 -168
-5 -195 -26 -17 -12 -34 -22 -39 -22 -5 0 -27 -13 -48 -30 -89 -67 -146 -134
-167 -195 -6 -16 -18 -41 -29 -54 -16 -21 -18 -43 -18 -176 0 -133 2 -155 19
-176 10 -13 22 -35 26 -48 17 -56 149 -194 244 -255 44 -29 64 -35 137 -41 47
-4 117 -4 155 0 127 13 282 108 354 217 15 24 37 55 47 71 10 15 27 74 38 131
18 99 19 168 20 1335 0 760 4 1240 10 1256 l10 25 287 0 c159 0 293 -4 300 -8z"/>
</g>
</svg>
